<svg width="360" height="360" viewBox="0 0 360 360" fill="none" xmlns="http://www.w3.org/2000/svg">
<path d="M196.762 118.02C195.268 118.787 197.731 121.535 198.3 119.397C198.39 118.74 197.434 117.674 196.762 118.02Z" fill="#0097CE"/>
<path d="M205.429 115.617C205.519 114.96 204.565 113.9 203.892 114.242C202.401 115.019 204.86 117.755 205.429 115.617Z" fill="#0097CE"/>
<path d="M119.998 225.752C119.766 225.806 119.564 225.951 119.438 226.153C119.312 226.356 119.272 226.601 119.327 226.833C119.381 227.066 119.526 227.267 119.728 227.393C119.931 227.519 120.176 227.559 120.408 227.505C133.826 224.388 147.746 224.091 161.284 226.634C174.823 229.178 187.686 234.505 199.058 242.279C199.25 242.279 199.437 242.218 199.592 242.104C199.747 241.991 199.861 241.83 199.918 241.647C199.975 241.463 199.972 241.266 199.909 241.085C199.847 240.903 199.727 240.746 199.569 240.638C188.067 232.765 175.052 227.375 161.352 224.812C147.651 222.249 133.568 222.569 119.998 225.752Z" fill="#0097CE"/>
<path d="M204.996 234.971C184.364 222.069 161.306 213.397 136.842 216.995C136.612 217.033 136.406 217.159 136.267 217.346C136.129 217.534 136.068 217.768 136.098 217.999C136.128 218.23 136.247 218.44 136.429 218.586C136.611 218.731 136.842 218.8 137.075 218.779C152.157 216.801 167.494 218.786 181.576 224.539C189.343 227.981 196.851 231.978 204.044 236.5C204.246 236.626 204.491 236.666 204.723 236.612C204.956 236.558 205.157 236.414 205.284 236.212C205.41 236.009 205.451 235.764 205.397 235.532C205.343 235.299 205.198 235.098 204.996 234.971Z" fill="#0097CE"/>
<path d="M152.95 210.432C152.711 210.44 152.486 210.543 152.323 210.718C152.161 210.893 152.074 211.125 152.083 211.364C152.091 211.603 152.194 211.828 152.369 211.991C152.544 212.154 152.776 212.24 153.015 212.232C173.768 211.495 194.078 218.351 210.14 231.513C211.016 232.262 212.206 230.855 211.283 230.122C194.849 216.739 174.133 209.746 152.95 210.432Z" fill="#0097CE"/>
<path d="M148 203.878C147.761 203.895 147.539 204.007 147.383 204.188C147.226 204.369 147.148 204.605 147.165 204.844C147.183 205.082 147.294 205.304 147.476 205.461C147.657 205.617 147.892 205.695 148.131 205.678C173.204 203.821 198.026 211.706 217.431 227.692C218.301 228.443 219.501 227.035 218.572 226.302C198.798 210.048 173.53 202.019 148 203.878Z" fill="#0097CE"/>
<path d="M156.75 199.839C168.88 198.172 181.231 199.283 192.869 203.09C204.506 206.896 215.126 213.298 223.926 221.812C224.736 222.631 226.041 221.326 225.177 220.52C216.169 211.833 205.31 205.299 193.416 201.409C181.521 197.518 168.9 196.373 156.5 198.057C156.268 198.096 156.061 198.223 155.921 198.412C155.782 198.602 155.723 198.838 155.755 199.07C155.788 199.303 155.91 199.514 156.096 199.657C156.282 199.801 156.517 199.866 156.75 199.839Z" fill="#0097CE"/>
<path d="M64.5057 203.966C59.6187 205.147 59.2461 211.994 64.7667 212.066C72.2169 212.108 72.3807 202.062 64.5057 203.966ZM68.2857 208.636C67.7563 209.274 67.0595 209.752 66.2735 210.016C65.4876 210.28 64.6436 210.32 63.8361 210.131C61.3809 209.231 62.5221 206.321 65.0565 205.68C67.0257 204.733 69.6501 206.652 68.2839 208.636H68.2857Z" fill="#0097CE"/>
<path d="M275.542 227.003C274.538 227.003 274.081 227.003 271.465 243.584C270.205 251.533 269.028 259.93 268.821 261.475C268.931 263.329 272.531 262.457 273.816 262.735C303.73 262.367 304.454 229.229 275.542 227.003ZM291.265 254.249C286.074 259.988 277.42 261.388 270.731 260.794C271.789 253.054 274.909 232.102 276.039 228.823C290.075 229.523 301.345 243.106 291.265 254.249Z" fill="#0097CE"/>
<path d="M350.61 99.6221C347.272 97.1147 343.32 99.2441 340.326 96.5819C340.027 96.2914 339.67 96.067 339.279 95.9233C338.887 95.7796 338.47 95.7197 338.054 95.7475C337.638 95.7753 337.232 95.8903 336.863 96.0849C336.494 96.2795 336.17 96.5494 335.913 96.8771C334.883 98.1468 334.287 99.7121 334.21 101.345C323.606 112.269 311.044 120.709 291.37 125.474C295.486 121.252 298.848 116.356 301.311 110.998C307.251 96.5099 283.18 85.4381 272.691 82.8065C272.227 80.8427 273.649 77.7071 274.227 75.6947C274.884 73.0433 272.967 71.7347 271.563 72.4547C268.105 73.5959 266.445 77.4083 264.438 80.0345C260.516 85.2545 263.475 86.8295 268.081 89.1857C267.944 89.3639 267.883 89.5891 267.911 89.8123C267.939 90.0354 268.054 90.2385 268.231 90.3773C270.61 92.7425 282.271 102.013 277.72 105.541C275.258 107.443 267.88 113.144 263.596 116.789C255.238 116.386 251.592 116.366 246.193 117.296C246.128 117.308 246.069 117.341 246.025 117.39C245.981 117.439 245.954 117.501 245.949 117.567C245.945 117.633 245.962 117.699 245.999 117.754C246.035 117.809 246.089 117.85 246.152 117.871C262.073 125.549 264.935 146.118 259.789 160.801C263.322 160.556 269.518 160.952 272.452 159.586C283.54 158.486 299.214 155.446 307.469 150.753C315.918 146.152 323.24 139.733 328.907 131.959C334.574 124.184 338.445 115.249 340.24 105.798C343.46 104.598 346.764 103.635 350.125 102.918C351.684 102.673 352.825 100.405 350.61 99.6221ZM279.767 87.0995C289.465 90.8957 304.026 100.218 299.671 110.251C296.874 116.346 292.873 121.813 287.908 126.322C286.146 126.75 283.824 127.207 282.024 127.607C287.274 122.377 292.05 116.692 296.295 110.618C297.485 109.09 298.239 107.267 298.476 105.344C297.555 99.0533 291.636 97.2587 286.746 93.9143C284.216 92.5057 281.78 90.9359 279.452 89.2145C279.662 88.5292 279.768 87.8163 279.767 87.0995ZM269.89 88.1363L266.026 86.0195C265.05 85.4939 264.046 84.6641 264.541 83.4599C265.702 81.3319 267.026 79.2967 268.501 77.3723C269.363 75.8421 270.753 74.6782 272.41 74.0981C272.54 74.1629 272.63 74.6813 272.518 75.1547C271.615 77.552 270.99 80.0451 270.655 82.5851C270.55 83.1074 270.578 83.6477 270.735 84.1567C270.892 84.6657 271.174 85.1273 271.555 85.4993C271.332 86.5487 270.742 87.4839 269.89 88.1363ZM272.302 91.6085C271.676 91.0343 271.082 90.4403 270.479 89.9237C271.346 89.3936 272.07 88.6592 272.588 87.7847C273.106 86.9102 273.401 85.9223 273.449 84.9071C274.867 85.3373 276.361 85.8359 277.857 86.3795C278.604 89.6915 275.433 93.1997 272.302 91.6085ZM261.45 118.439C262.429 118.351 263.59 118.915 264.472 118.414C268.67 114.814 276.313 108.91 278.773 107.008C283.758 102.997 277.614 97.1201 274.36 93.7307C275.272 93.6926 276.158 93.4127 276.927 92.9196C277.695 92.4265 278.319 91.738 278.734 90.9245C283.648 95.2841 295.175 98.6195 296.682 105.249C296.461 106.828 295.824 108.319 294.835 109.569C290.446 115.858 285.483 121.725 280.008 127.096C279.119 126.016 276.963 123.411 275.805 125.026C275.759 125.134 275.734 125.251 275.733 125.37C275.731 125.488 275.753 125.606 275.797 125.715C275.842 125.825 275.907 125.925 275.99 126.01C276.073 126.094 276.171 126.162 276.28 126.208C277.368 126.722 278.271 127.558 278.869 128.602C279.475 130.858 283.401 128.942 285.012 128.811C304.035 125.017 321.176 117.167 331.387 106.491C332.568 106.764 333.636 107.392 334.447 108.291C324.204 133.896 302.798 148.811 275.638 149.387C276.559 137.536 272.83 124.214 261.45 118.439ZM326.547 132.299C314.626 149.182 295.8 155.323 274.558 157.544C275.125 155.473 275.442 153.341 275.505 151.194C303.205 150.668 325.082 135.628 335.754 109.772C338.964 113.826 329.58 128.008 326.547 132.299ZM337.86 108.404C337.781 108.725 337.68 109.04 337.596 109.358C336.524 107.412 334.825 105.886 332.775 105.029C333.612 104.198 334.773 102.401 335.979 102.859C336.514 103.043 336.999 103.347 337.398 103.747C337.797 104.148 338.098 104.635 338.28 105.17C338.462 105.705 338.518 106.275 338.445 106.836C338.373 107.397 338.172 107.933 337.86 108.404ZM339.829 103.964C339.011 102.754 337.884 101.786 336.566 101.158C335.335 101.185 336.903 98.4107 337.297 98.0129C338.494 95.9141 341.923 101.701 348.097 101.575C345.299 102.219 342.539 103.017 339.829 103.964Z" fill="#0097CE"/>
<path d="M202.335 113.164C203.183 112.928 204.15 112.327 204.915 112.735C205.137 112.824 205.384 112.821 205.604 112.726C205.823 112.632 205.996 112.455 206.085 112.233C206.173 112.011 206.17 111.763 206.076 111.544C205.982 111.325 205.804 111.152 205.583 111.063C204.517 110.545 200.931 110.795 201.563 112.728C201.643 112.861 201.757 112.971 201.892 113.047C202.027 113.124 202.18 113.164 202.335 113.164Z" fill="#0097CE"/>
<path d="M195.741 117.946C195.932 117.281 196.326 116.692 196.866 116.261C197.057 116.118 197.183 115.905 197.217 115.668C197.251 115.432 197.189 115.192 197.046 115.001C196.903 114.81 196.69 114.684 196.454 114.65C196.217 114.616 195.977 114.678 195.786 114.821C194.917 115.502 194.29 116.444 193.997 117.509C193.951 117.736 193.994 117.972 194.117 118.168C194.241 118.364 194.435 118.505 194.66 118.561C194.885 118.618 195.123 118.585 195.324 118.471C195.525 118.356 195.675 118.168 195.741 117.946Z" fill="#0097CE"/>
<path d="M204.794 122.554C203.957 123.368 205.253 124.664 206.066 123.827C206.426 123.467 206.732 123.121 207.042 122.767C206.587 123.557 206.081 124.617 207.434 124.819C209.202 124.313 209.234 121.681 208.138 120.445C206.745 119.251 205.789 121.868 204.794 122.554Z" fill="#0097CE"/>
<path d="M201.154 122.085C202.216 122.585 204.489 120.861 203.191 119.768C202.612 119.313 201.931 119.948 201.67 120.355C201.168 119.791 202.336 115.893 200.664 115.959C200.426 115.959 200.197 116.054 200.028 116.223C199.859 116.392 199.764 116.621 199.764 116.859C199.881 118.31 199.188 121.629 201.154 122.085Z" fill="#0097CE"/>
<path d="M313.267 230.729C307.369 218.788 292.567 211.714 275.228 208.852C282.414 202.381 285.277 199.702 285.454 199.35C286.19 196.432 285.682 186.341 287.108 183.655C287.181 183.464 287.192 183.254 287.138 183.056C287.085 182.858 286.97 182.683 286.811 182.554C276.897 175.792 266.054 170.506 254.621 166.86C264.656 151.041 260.399 122.648 239.6 117.297C243.521 111.7 239.431 103.15 232.564 103.714C228.029 103.782 223.507 104.226 219.044 105.04C220.18 104.083 219.584 101.98 218.771 101.21C222.421 99.1562 217.792 92.6888 214.271 93.0128C214.451 90.2408 212.518 85.1756 209.269 87.3824C208.317 85.981 207.113 84.7693 205.717 83.8094C203.899 82.7294 201.565 82.4792 200.56 84.4376C199.059 83.475 197.37 82.8446 195.605 82.589C193.315 82.5566 191.285 84.029 191.562 86.0828C189.128 85.5428 186.45 85.8002 185.125 88.2428C184.486 89.7098 185.933 90.5432 183.656 90.4352C180.465 90.725 178.436 95.0738 181.676 97.115C178.139 97.9232 175.376 104.329 180.193 105.339C178.49 107.679 177.324 111.168 179.266 113.524C154.255 117.711 134.32 121.197 115.471 124.927C106.372 129.027 99.5623 134.427 90.8413 138.967C90.6369 139.073 90.481 139.253 90.4056 139.471C90.3303 139.689 90.3413 139.927 90.4363 140.137C91.7647 143.06 116.018 145.177 120.865 145.578C143.154 142.349 165.253 137.922 187.066 132.318C179.437 138.42 168.538 144.122 167.591 155.007C143.731 152.294 121.474 155.75 102.628 167.76C70.7407 186.687 37.6855 205.662 8.15466 229.096C8.98806 234.585 10.8547 240.121 11.1337 245.284C11.1514 245.484 11.2353 245.672 11.3722 245.818C11.509 245.965 11.691 246.062 11.8891 246.093C12.0873 246.125 12.2902 246.089 12.4658 245.992C12.6413 245.895 12.7794 245.742 12.8581 245.557C34.1881 239.32 58.2991 239.162 80.3833 244.054C98.3527 247.208 92.4235 255.645 97.8721 256.834C98.1979 256.915 104.267 257.668 104.352 257.569C105.491 257.472 106.004 256.174 105.972 255.283C106.62 247.003 111.505 246.807 119.404 247.183C156.23 249.573 169.489 255.625 200.017 275.083C200.131 275.157 200.262 275.204 200.397 275.219C200.533 275.234 200.67 275.216 200.798 275.168C200.926 275.12 201.041 275.042 201.133 274.941C201.225 274.84 201.292 274.719 201.329 274.588C219.478 258.388 246.176 234.847 258.058 224.188C253.488 242.929 249.311 261.889 244.597 285.26C244.573 285.381 244.574 285.506 244.6 285.626C244.626 285.747 244.677 285.861 244.748 285.961C244.82 286.061 244.912 286.146 245.018 286.209C245.124 286.272 245.242 286.313 245.364 286.329C264.064 288.72 288.245 289.308 303.033 277.407C317.126 266.823 322.021 246.11 313.267 230.729ZM232.606 105.514C238.981 105.467 241.141 112.51 237.676 116.816C235.216 116.237 232.699 115.936 230.172 115.916C230.586 114.089 230.493 112.183 229.903 110.405C229.313 108.627 228.248 107.044 226.824 105.827C228.725 105.647 230.656 105.53 232.606 105.514ZM227.438 141.364C226.934 139.064 228.966 138.72 229.468 141.037C230.425 148.09 229.649 155.269 227.207 161.955C218.165 160.76 208.967 161.811 200.427 165.015C197.597 163.451 194.652 162.106 191.618 160.99C196.199 157.689 202.029 153.054 206.52 150.028C211.138 155.584 217.544 159.364 224.641 160.72C224.844 160.713 225.039 160.64 225.198 160.513C225.356 160.385 225.469 160.21 225.519 160.012C227.581 154.026 228.238 147.645 227.438 141.364ZM218.238 115.25C218.943 113.988 219.295 112.56 219.257 111.116C219.219 109.671 218.793 108.263 218.024 107.04C219.934 106.74 222.034 106.297 224.144 106.14C225.864 107.061 227.215 108.546 227.969 110.346C228.723 112.146 228.834 114.15 228.284 116.022C225.172 116.28 219.039 116.892 216.944 117.102C216.152 116.528 218.072 116.118 218.238 115.25ZM194.761 111.99C197.419 113.113 199.916 110.763 200.944 108.3C201.879 108.679 202.915 108.733 203.884 108.453C204.854 108.172 205.701 107.574 206.29 106.754C206.618 107.047 207.022 107.24 207.456 107.311C207.891 107.381 208.336 107.326 208.739 107.152C209.261 108.023 210.466 109.611 211.391 110.806C211.33 111.542 211.465 112.281 211.781 112.948C211.986 113.355 212.316 113.686 212.723 113.891C213.13 114.097 213.592 114.166 214.041 114.09C214.491 114.013 214.904 113.795 215.219 113.466C215.535 113.137 215.737 112.716 215.795 112.264C215.781 112.021 216.479 112.033 216.714 111.531C217.107 111.03 217.3 110.4 217.253 109.764C217.666 111.488 217.516 114.696 215.444 115.189C214.742 115.228 214.078 116.089 214.496 116.742C216.054 119.39 217.99 121.795 220.243 123.883C220.862 129.07 212.863 135.72 209.582 129.348C210.786 128.259 211.218 129.668 212.167 130.476C212.707 131.016 213.623 130.116 213.077 129.565C212.379 128.987 211.765 128.312 211.256 127.562C211.076 127.202 210.716 127.202 210.345 127.382C208.362 128.864 205.881 129.517 203.426 129.204C202.035 128.86 200.729 128.237 199.587 127.374C198.444 126.51 197.489 125.424 196.778 124.18C196.634 123.31 196.391 121.86 195.223 121.3C193.853 120.315 193.481 118.045 192.784 116.488C193.745 115.141 194.418 113.609 194.761 111.99ZM204.158 130.5C199.763 133.171 193.178 129.31 192.869 124.353C192.898 123.957 193.077 123.587 193.37 123.319C193.663 123.052 194.047 122.906 194.444 122.913C194.876 123.204 194.957 124.331 195.074 124.844C195.382 126.073 196.861 128.037 197.984 127.576C199.611 129.279 201.81 130.321 204.158 130.5ZM99.9835 141.3C97.6238 140.981 95.2903 140.492 93.0013 139.836C95.4295 139.066 97.8451 135.516 100.293 137.397C100.747 138.07 99.6487 138.385 99.6451 139.008C99.4921 140.045 100.806 139.84 101.182 140.506C101.061 140.726 100.889 140.914 100.68 141.054C100.472 141.195 100.233 141.284 99.9835 141.314V141.3ZM120.683 143.74C114.553 143.233 107.916 142.48 102.565 141.703C102.733 141.472 102.852 141.208 102.912 140.928C102.972 140.648 102.973 140.359 102.915 140.079C102.856 139.799 102.74 139.534 102.572 139.302C102.405 139.07 102.191 138.875 101.944 138.731C102.097 138.424 102.182 138.086 102.191 137.743C102.201 137.4 102.136 137.058 102 136.743C101.864 136.427 101.661 136.145 101.405 135.915C101.15 135.686 100.847 135.516 100.518 135.415C105.484 132.163 110.655 129.235 115.998 126.649C117.969 126.734 119.863 127.442 121.405 128.672C122.948 129.902 124.06 131.59 124.581 133.493C125.102 135.396 125.005 137.415 124.304 139.26C123.603 141.104 122.335 142.678 120.682 143.755L120.683 143.74ZM123.923 143.305C125.078 142.002 125.91 140.447 126.353 138.763C126.795 137.08 126.835 135.316 126.47 133.614C126.105 131.912 125.345 130.32 124.252 128.966C123.158 127.612 121.761 126.534 120.174 125.82C138.732 122.265 158.685 118.74 183.635 114.613C183.698 116.355 185.159 118.558 187.076 117.621C187.616 117.261 187.627 116.769 188.131 117.543C188.344 117.808 188.611 118.026 188.913 118.181C189.216 118.336 189.548 118.426 189.887 118.445C190.227 118.464 190.566 118.411 190.884 118.289C191.202 118.168 191.491 117.981 191.731 117.741C192.192 118.958 192.736 120.141 193.36 121.282C190.408 122.241 190.723 125.85 192.194 128.048C191.499 128.512 190.845 129.036 190.241 129.614C168.398 135.37 146.262 139.945 123.927 143.319L123.923 143.305ZM97.7803 254.581C97.6675 254.616 97.5489 254.629 97.4311 254.619C97.3134 254.608 97.1989 254.575 97.0941 254.52C96.9893 254.466 96.8963 254.391 96.8204 254.3C96.7444 254.21 96.6871 254.105 96.6517 253.992C95.3736 249.914 92.8573 246.335 89.4523 243.752C86.0473 241.17 81.9226 239.711 77.6509 239.58C77.4122 239.58 77.1833 239.485 77.0145 239.316C76.8457 239.147 76.7509 238.918 76.7509 238.68C76.7509 238.441 76.8457 238.212 77.0145 238.043C77.1833 237.874 77.4122 237.78 77.6509 237.78C82.3079 237.903 86.8093 239.482 90.5235 242.294C94.2376 245.106 96.9779 249.01 98.3599 253.459C98.4297 253.685 98.4081 253.929 98.2996 254.139C98.1912 254.349 98.0047 254.507 97.7803 254.581ZM98.2609 246.661C85.9399 227.401 34.9261 224.674 13.7149 226.987C40.5511 206.506 70.0549 189.093 98.6173 172.224C118.738 158.625 141.817 153.597 167.566 156.817C167.984 162.167 172.147 162.68 177.027 162.86C184.497 162.86 193.288 154.517 196.566 146.869C198.885 142.483 200.761 137.877 202.166 133.119C203.081 132.99 203.964 132.696 204.772 132.249C200.168 141.823 198.449 153.887 189.433 160.338C188.601 160.941 189.307 161.917 189.989 162.275C193.119 163.494 195.794 164.615 198.433 165.952C194.928 167.455 191.294 170.272 187.886 171.423C168.963 159.683 142.759 159.782 120.797 163.683C100.721 173.21 83.7511 186.341 64.3507 197.1C51.9973 204.262 39.2245 211.667 27.0169 219.684C26.8519 219.793 26.7273 219.953 26.6621 220.139C26.597 220.325 26.5949 220.528 26.6563 220.716C26.7178 220.903 26.8392 221.066 27.0019 221.178C27.1646 221.289 27.3596 221.345 27.5569 221.335C44.7423 220.197 61.989 222.284 78.4069 227.489C85.6537 229.743 94.5367 233.303 98.9971 240.886C98.4143 242.752 98.1651 244.705 98.2609 246.657V246.661ZM110.117 194.81C92.2399 199.188 94.8013 192.889 98.4913 178.38C108.976 172.605 117.33 164.287 130.286 163.98C149.845 162.54 170.144 162.601 186.31 172.589C178.658 176.929 171.01 181.521 163.432 186.359C162.065 186.951 160.786 188.674 159.326 188.409C142.746 188.837 126.255 190.981 110.117 194.806V194.81ZM157.277 190.294C151.537 194.034 145.624 198.081 139.265 202.62C137.229 202.352 132.976 203.918 131.654 202.395C129.901 199.918 130.394 195.838 130.162 192.88C139.147 191.537 148.197 190.672 157.274 190.29L157.277 190.294ZM78.9595 225.775C63.4021 220.868 47.1105 218.701 30.8113 219.369C52.4671 205.588 74.8771 193.449 96.3313 179.717C91.5433 195.879 93.6313 200.979 110.573 196.552C116.497 195.206 122.444 194.066 128.413 193.132C128.352 195.368 128.478 197.605 128.791 199.819C129.289 204.409 132.477 205.473 136.462 204.62C126.74 211.767 117.463 219.5 108.681 227.775C104.997 230.801 101.976 234.555 99.8089 238.802C94.7653 231.4 85.5691 227.853 78.9559 225.772L78.9595 225.775ZM144.236 246.825C144.168 247.053 144.012 247.245 143.802 247.359C143.592 247.472 143.346 247.498 143.117 247.429C143.344 247.15 99.8701 236.383 103.72 254.629C103.746 254.745 103.748 254.864 103.728 254.981C103.707 255.097 103.664 255.208 103.6 255.308C103.537 255.408 103.454 255.494 103.357 255.562C103.26 255.63 103.151 255.678 103.035 255.703C102.92 255.729 102.801 255.731 102.684 255.711C102.568 255.69 102.456 255.647 102.357 255.583C102.257 255.519 102.171 255.437 102.103 255.34C102.035 255.243 101.987 255.134 101.962 255.018C100.07 247.377 107.542 241.92 117.056 242.217C126.031 242.165 134.971 243.337 143.63 245.7C143.743 245.734 143.849 245.79 143.94 245.864C144.032 245.939 144.108 246.031 144.164 246.135C144.22 246.239 144.255 246.354 144.267 246.471C144.278 246.589 144.267 246.708 144.233 246.821L144.236 246.825ZM170.686 245.277C170.61 245.503 170.447 245.69 170.233 245.796C170.02 245.902 169.773 245.919 169.546 245.844C169.366 245.781 150.99 239.641 137.47 237.756C123.103 235.755 108.382 238.836 103.958 244.765C103.297 245.714 101.787 244.616 102.518 243.685C108.055 236.259 124.778 234.165 137.722 235.969C151.402 237.877 169.942 244.069 170.122 244.132C170.348 244.209 170.533 244.373 170.638 244.587C170.743 244.801 170.759 245.047 170.682 245.273L170.686 245.277ZM198.226 250.419C192.271 245.452 185.425 241.665 178.053 239.259C164.756 234.494 150.718 232.134 136.594 232.288C126.593 232.808 104.897 233.728 100.025 245.116C100.34 238.671 104.842 233.629 109.909 229.096C133.739 206.254 170.059 183.016 198.569 167.878C205.489 164.188 214.923 162.754 226.588 163.607C225.915 164.599 225.312 167.895 224.133 167.468C217.726 166.606 211.242 166.482 204.806 167.097C204.688 167.107 204.573 167.141 204.468 167.195C204.363 167.25 204.269 167.325 204.193 167.416C204.116 167.506 204.059 167.611 204.023 167.724C203.987 167.837 203.974 167.956 203.984 168.075C204.004 168.313 204.119 168.534 204.302 168.688C204.393 168.765 204.498 168.822 204.611 168.858C204.724 168.894 204.843 168.907 204.961 168.897C211.202 168.302 217.49 168.415 223.705 169.236C222.596 171.041 221.348 172.757 219.971 174.367C219.839 174.193 219.647 174.074 219.431 174.034C212.849 172.93 206.146 172.743 199.513 173.478C199.394 173.491 199.28 173.527 199.176 173.584C199.071 173.641 198.979 173.718 198.905 173.811C198.831 173.904 198.775 174.01 198.742 174.124C198.708 174.239 198.698 174.358 198.711 174.476C198.724 174.595 198.76 174.709 198.817 174.813C198.874 174.918 198.951 175.01 199.044 175.084C199.136 175.158 199.243 175.214 199.357 175.247C199.471 175.281 199.591 175.291 199.709 175.278C206.096 174.572 212.55 174.742 218.891 175.784C217.462 177.276 215.682 180.131 213.671 180.433C213.146 180.149 193.112 175.834 198.449 179.832C203.068 180.144 207.653 180.844 212.154 181.926C210.084 183.704 206.711 183.209 204.668 184.869C203.631 185.292 202.961 186.507 203.537 187.261C201.557 186.944 187.143 184.201 187.051 186.584C187.051 186.823 187.146 187.052 187.315 187.22C187.484 187.389 187.713 187.484 187.951 187.484C190.266 187.741 205.271 187.471 202.137 190.272C201.358 191.383 201.093 193.883 202.886 194.04C203.329 193.87 202.924 195.258 203.374 195.726C191.54 191.182 178.818 189.43 166.196 190.605C165.958 190.628 165.738 190.744 165.585 190.929C165.432 191.113 165.359 191.351 165.381 191.59C165.404 191.829 165.52 192.049 165.704 192.201C165.889 192.354 166.127 192.428 166.366 192.405C191.414 189.822 215.785 200.01 233.113 217.542C233.289 217.543 233.461 217.491 233.609 217.395C233.756 217.299 233.871 217.161 233.941 217C234.011 216.838 234.032 216.66 234.002 216.487C233.971 216.313 233.891 216.153 233.77 216.025C225.765 207.557 216.041 200.901 205.251 196.502C205.713 196.278 206.098 195.922 206.356 195.478C206.369 195.781 206.47 196.075 206.646 196.322C206.822 196.57 207.066 196.762 207.348 196.874C207.63 196.986 207.939 197.014 208.237 196.955C208.535 196.896 208.81 196.752 209.027 196.54C210.466 194.9 212.092 193.436 213.873 192.177C222.97 195.75 231.178 201.265 237.925 208.337C238.005 208.427 238.102 208.5 238.211 208.552C238.32 208.604 238.439 208.633 238.559 208.638C238.68 208.643 238.8 208.624 238.913 208.582C239.026 208.539 239.129 208.475 239.217 208.392C239.304 208.309 239.374 208.209 239.422 208.098C239.47 207.988 239.496 207.868 239.497 207.748C239.498 207.627 239.475 207.508 239.429 207.396C239.383 207.285 239.315 207.183 239.23 207.099C232.888 200.46 225.283 195.156 216.863 191.498C221.211 191.152 225.466 190.055 229.439 188.258C236.411 191.772 242.837 196.275 248.519 201.628C248.605 201.714 248.706 201.781 248.818 201.826C248.929 201.872 249.049 201.894 249.169 201.892C249.289 201.891 249.408 201.865 249.519 201.816C249.629 201.768 249.728 201.698 249.811 201.61C249.893 201.522 249.958 201.419 250 201.306C250.042 201.193 250.061 201.073 250.055 200.953C250.05 200.833 250.021 200.715 249.969 200.606C249.917 200.497 249.844 200.4 249.754 200.32C244.298 195.185 238.17 190.812 231.54 187.322C234.518 185.955 237.376 184.34 240.083 182.493C246.835 185.806 253.054 190.108 258.536 195.256C259.368 196.07 260.637 194.734 259.769 193.946C254.393 188.903 248.325 184.653 241.748 181.324C243.893 179.731 245.904 177.964 247.76 176.041C254.023 178.834 259.927 182.37 265.344 186.575C265.439 186.647 265.546 186.699 265.661 186.729C265.776 186.759 265.896 186.767 266.013 186.75C266.131 186.734 266.244 186.695 266.347 186.635C266.449 186.575 266.539 186.496 266.61 186.401C266.682 186.307 266.735 186.199 266.765 186.084C266.795 185.969 266.802 185.85 266.786 185.732C266.77 185.615 266.731 185.501 266.671 185.399C266.611 185.296 266.531 185.207 266.437 185.135C261.075 180.978 255.25 177.456 249.077 174.639C250.796 172.719 252.348 170.656 253.716 168.472C264.547 171.883 274.847 176.795 284.316 183.063C279.213 185.891 256.416 204.303 247.475 210.821C243.827 213.496 198.413 250.218 198.226 250.416V250.419ZM209.886 189.568C208.174 188.461 205.51 193.014 204.949 194.207C205.456 192.203 206.587 190.413 208.178 189.093C208.352 188.946 208.464 188.738 208.493 188.512C208.521 188.286 208.464 188.057 208.332 187.871C208.199 187.685 208.002 187.555 207.779 187.508C207.556 187.46 207.323 187.498 207.127 187.614C207.618 187.318 208.134 187.066 208.669 186.861C208.851 186.791 209.004 186.664 209.107 186.5C209.211 186.335 209.258 186.141 209.242 185.948C209.226 185.754 209.147 185.571 209.019 185.425C208.89 185.28 208.717 185.18 208.527 185.14C211.699 183.681 214.287 186.76 214.78 189.563C212.223 190.829 209.98 192.649 208.214 194.889C208.459 193.388 209.063 191.968 209.974 190.749C210.105 190.574 210.168 190.357 210.151 190.139C210.133 189.921 210.037 189.717 209.881 189.565L209.886 189.568ZM201.269 272.266L200.621 263.053C205.612 258.55 210.977 254.479 216.658 250.885C216.859 250.757 217.001 250.554 217.053 250.321C217.105 250.088 217.062 249.844 216.934 249.643C216.806 249.441 216.603 249.299 216.37 249.247C216.137 249.195 215.893 249.238 215.691 249.366C210.324 252.77 205.232 256.59 200.463 260.791L200.227 257.434L244.243 221.504C244.334 221.429 244.41 221.337 244.466 221.233C244.522 221.129 244.557 221.015 244.569 220.897C244.581 220.779 244.569 220.66 244.535 220.547C244.501 220.434 244.445 220.328 244.37 220.237C244.296 220.145 244.204 220.069 244.099 220.013C243.995 219.957 243.881 219.922 243.763 219.91C243.646 219.899 243.527 219.91 243.414 219.944C243.3 219.978 243.195 220.034 243.103 220.109L200.072 255.24L199.828 251.757C222.963 233.861 223.994 230.311 264.426 200.219C269.187 196.516 279.787 187.88 284.912 184.739C284.381 187.803 284.106 190.906 284.089 194.016L261.134 212.634C260.99 212.751 260.885 212.91 260.835 213.089C260.785 213.268 260.791 213.458 260.853 213.633C260.915 213.808 261.03 213.96 261.182 214.067C261.334 214.174 261.515 214.232 261.701 214.232C262.183 214.232 260.457 215.492 284.021 196.398C283.985 197.431 283.951 198.279 283.92 198.43C282.208 200.536 217.423 257.923 201.269 272.262V272.266ZM309.732 250.113L315.771 250.43C315.206 258.032 312.193 265.246 307.183 270.991C305.862 269.901 302.323 265.591 301.006 267.123C300.878 267.325 300.835 267.569 300.887 267.802C300.939 268.035 301.081 268.237 301.283 268.365C302.997 269.488 304.568 270.815 305.963 272.316C300.969 277.437 294.716 281.155 287.832 283.095L286.244 277.381C286.175 277.158 286.021 276.97 285.815 276.857C285.61 276.745 285.368 276.717 285.143 276.78C284.917 276.843 284.725 276.991 284.607 277.194C284.489 277.396 284.454 277.636 284.51 277.864L286.112 283.624C279.332 285.399 272.323 286.146 265.321 285.84L266.233 279.748C266.257 279.518 266.192 279.287 266.05 279.104C265.908 278.92 265.701 278.799 265.472 278.764C265.242 278.73 265.009 278.786 264.819 278.919C264.63 279.053 264.499 279.255 264.455 279.482L263.505 285.818C257.843 285.734 252.19 285.352 246.568 284.671C251.394 260.793 255.665 241.515 260.39 222.283C265.61 217.177 270.551 213.202 273.975 209.973C274.425 210.945 275.896 210.632 276.767 210.949C276.551 212.351 274.816 217.564 276.817 217.87C277.056 217.87 277.285 217.775 277.454 217.606C277.622 217.437 277.717 217.209 277.717 216.97C277.731 215.049 278.008 213.14 278.542 211.294C283.83 212.318 288.988 213.924 293.923 216.082L290.798 221.238C290.737 221.339 290.696 221.451 290.678 221.568C290.66 221.685 290.666 221.804 290.694 221.919C290.722 222.034 290.773 222.142 290.843 222.237C290.913 222.332 291.001 222.413 291.102 222.474C291.203 222.535 291.316 222.576 291.432 222.594C291.549 222.612 291.669 222.606 291.783 222.578C291.898 222.55 292.006 222.499 292.102 222.429C292.197 222.359 292.277 222.271 292.339 222.17L295.562 216.853C302.372 220.287 307.379 224.301 310.841 230.094L306.28 232.372C306.17 232.423 306.072 232.495 305.991 232.584C305.91 232.673 305.848 232.778 305.808 232.892C305.768 233.005 305.751 233.126 305.759 233.246C305.767 233.367 305.798 233.484 305.852 233.592C305.906 233.7 305.981 233.796 306.073 233.874C306.164 233.952 306.271 234.011 306.386 234.048C306.501 234.084 306.622 234.097 306.742 234.085C306.862 234.074 306.978 234.039 307.084 233.982L311.73 231.661C314.532 236.867 315.943 242.708 315.827 248.619L309.828 248.304C309.588 248.292 309.353 248.375 309.175 248.535C308.997 248.695 308.89 248.92 308.877 249.159C308.864 249.399 308.947 249.633 309.108 249.811C309.268 249.99 309.493 250.097 309.732 250.11V250.113Z" fill="#0097CE"/>
</svg>
