<svg width="41" height="41" viewBox="0 0 41 41" fill="none" xmlns="http://www.w3.org/2000/svg">
<g id="lightbulb 1">
<g id="_x32_37">
<path id="Vector" d="M25.593 34.0893C25.975 33.1065 26.1251 32.0314 26.2124 30.965C26.3046 29.9004 26.3551 28.8196 26.6351 27.7946C26.8828 26.7549 27.4667 25.8625 28.2164 24.9569C28.9492 24.0523 29.8362 23.1501 30.4805 21.9581C31.1091 20.7605 31.4107 19.3787 31.366 18.0057C31.2766 15.2578 30.1444 12.5178 28.1817 10.3853C27.6898 9.85138 27.1289 9.38563 26.536 8.96909C26.2216 8.78993 25.9189 8.57396 25.5955 8.43085L24.6317 7.99196C23.3159 7.48941 21.9384 7.22761 20.5806 7.19287C19.2217 7.14742 17.8827 7.35738 16.6434 7.76848C15.4082 8.18202 14.2375 8.74711 13.2536 9.52479C12.2729 10.2965 11.4086 11.1821 10.7759 12.1887C10.15 13.1944 9.67581 14.2523 9.41307 15.3359C8.84441 17.5176 9.30002 19.7038 10.1263 21.3583C10.9468 23.041 12.0276 24.3267 12.9826 25.4035C13.9605 26.4148 14.3885 27.5403 14.6632 28.4945C14.9284 29.4495 15.0336 30.2255 15.1211 30.7474C15.2035 31.2713 15.2554 31.548 15.2944 31.5453C15.3277 31.5431 15.3474 31.3003 15.3423 30.8578C15.8697 31.2683 17.8487 32.0453 20.3761 32.1018C22.6639 32.169 24.5366 31.6231 25.2773 31.2353C25.2465 31.6334 25.2078 32.0237 25.1477 32.3976C24.8599 32.2787 24.1984 32.3978 23.4442 32.529C22.54 32.6992 21.7579 32.8378 21.7151 33.1433C21.6659 33.4367 22.5409 33.8104 23.6401 33.6091C24.2645 33.4971 24.7487 33.2372 25.0298 32.9861C24.9667 33.2616 24.8944 33.5311 24.8013 33.7882C24.7573 33.9045 24.7034 34.011 24.654 34.122C24.3436 34.263 23.9665 34.4793 23.592 34.66C23.2204 34.8283 22.8682 34.9162 22.5948 34.9627C22.3221 35.0148 22.0945 35.0211 22.0102 35.152C21.9285 35.2698 22.0505 35.5444 22.4513 35.7256C22.6727 35.8287 22.9711 35.8704 23.291 35.8467C21.9146 36.7688 20.2082 36.7649 18.9173 36.4184C18.2598 36.2396 17.6637 35.9774 17.1972 35.648C16.7234 35.3201 16.3931 34.8989 16.1553 34.4855C15.6897 33.6419 15.5803 32.8511 15.4751 32.3401C15.3829 31.8201 15.3344 31.5423 15.2944 31.5453C15.2589 31.548 15.2332 31.8285 15.2552 32.3651C15.294 32.8945 15.3248 33.7139 15.7761 34.6825C16.0077 35.1571 16.3611 35.6642 16.8813 36.0653C17.2295 36.3378 17.6449 36.5527 18.0866 36.7427C18.062 36.9395 18.0827 37.2036 18.2096 37.5211C18.4728 38.195 19.3222 39.019 20.5468 39.0204C21.7422 38.995 22.5792 38.2354 22.9114 37.641C23.1169 37.2838 23.1796 36.9929 23.177 36.7934C23.3668 36.7035 23.555 36.6051 23.7366 36.4837C24.5883 35.9656 25.2146 35.0504 25.593 34.0893ZM18.2489 30.8672C18.3481 30.0077 18.4341 28.7778 18.4547 27.566C18.4793 26.6849 18.4483 25.6753 18.3135 24.5776C18.2583 24.0292 18.2003 23.4547 18.14 22.8562C18.1257 22.6926 18.1287 22.5196 18.1372 22.3418C18.7109 22.0693 19.0127 21.8796 19.3541 21.6929C19.5291 21.5975 19.7622 21.4567 19.9378 21.3247C20.674 20.7782 21.2201 20.1915 21.8331 19.9764C22.4235 19.75 23.1775 19.8365 23.626 20.1763C23.7257 20.2486 23.8059 20.3391 23.8786 20.4343C23.6544 20.3428 23.4174 20.3066 23.2213 20.3228C22.761 20.288 22.2492 20.5506 21.9668 20.9194C21.6678 21.2805 21.5057 21.821 21.6471 22.3348C21.7824 22.8222 22.1294 23.2669 22.6864 23.4453C23.0408 23.5465 23.3695 23.4932 23.6566 23.3839C23.5563 23.7567 23.4427 24.1225 23.3161 24.4701C23.1351 24.9669 22.9125 25.4645 22.7721 25.9656C22.4041 27.2163 22.3434 28.4443 22.524 29.6902C22.6091 30.2366 22.7065 30.6591 22.795 30.9678C21.2454 31.0516 19.8687 31.0295 18.2489 30.8672ZM17.2325 21.5491C16.5551 21.8237 15.8411 21.8903 15.2392 21.704C15.1004 21.6582 14.9859 21.5977 14.901 21.5258C14.8031 21.4327 14.7107 21.338 14.6516 21.2238C14.2564 20.5174 14.7429 19.4394 15.5055 19.1323C16.0144 18.9111 16.5078 19.0468 16.8586 19.4576C17.2175 19.8688 17.3334 20.4157 17.323 21.0178C17.3221 21.1806 17.314 21.3476 17.3043 21.517C17.2804 21.5267 17.2564 21.5397 17.2325 21.5491ZM22.9715 22.4748C22.8241 22.4404 22.6543 22.2644 22.6016 22.074C22.546 21.8993 22.5927 21.6909 22.7234 21.5187C22.8626 21.3491 23.0173 21.2477 23.2305 21.2614C23.5032 21.2402 23.633 21.3175 23.7295 21.4221C23.8245 21.5192 23.8692 21.7408 23.8763 21.975C23.6085 22.3102 23.1665 22.5583 22.9715 22.4748ZM23.0401 30.9536C23.0136 30.6354 22.9756 30.2016 22.9495 29.6514C22.9048 28.4638 23.0219 27.3502 23.4363 26.1808C23.5877 25.7327 23.8177 25.2818 24.0384 24.7545C24.3234 24.0682 24.5859 23.3309 24.7081 22.5942C24.8435 22.4203 24.9603 22.228 25.0431 22.0167C25.4351 21.0995 25.1029 19.9224 24.2724 19.3167C23.4399 18.7101 22.3985 18.6233 21.458 18.9509C20.5106 19.306 19.9087 20.0026 19.2936 20.4358C19.0275 20.6311 18.9021 20.6849 18.2763 21.0402C18.2611 21.0486 18.2465 21.0556 18.2314 21.0638C18.2318 21.0554 18.2327 21.0475 18.2331 21.039C18.2718 20.3616 18.1501 19.4953 17.5991 18.8384C17.3322 18.5116 16.9548 18.2258 16.4952 18.1007C16.0347 17.9711 15.5436 18.0263 15.122 18.1963C14.2623 18.5407 13.6487 19.3522 13.4917 20.2797C13.4119 20.7457 13.4686 21.2751 13.7195 21.7352C13.8407 21.9673 14.0159 22.1641 14.2044 22.3375C14.4176 22.5219 14.661 22.6432 14.8967 22.7234C15.6922 22.9829 16.5281 22.912 17.2815 22.6766C17.2862 22.7642 17.2866 22.8507 17.2969 22.939C17.3816 23.5328 17.4628 24.1028 17.5403 24.6467C17.7236 25.7286 17.8074 26.708 17.8412 27.5762C17.8722 28.4463 17.899 29.1956 17.921 29.8082C17.9323 30.2148 17.9445 30.5554 17.9586 30.8377C16.6479 30.6963 15.6783 30.5286 15.3356 30.5891C15.2874 29.273 15.0822 27.9555 14.5605 26.7472C14.3139 26.1639 13.9192 25.5524 13.4489 25.0042C12.5499 23.906 11.5508 22.6224 10.8295 21.0296C10.104 19.4546 9.75018 17.5149 10.2959 15.5577C10.5517 14.5809 11.0043 13.6198 11.5829 12.7185C12.1689 11.8141 12.9648 11.0244 13.8611 10.3333C14.7607 9.63653 15.834 9.13529 16.9621 8.7672C18.0942 8.40137 19.3171 8.21807 20.554 8.26803C23.0004 8.36118 25.6394 9.18863 27.382 11.1372C29.1511 13.05 30.2045 15.5885 30.2909 18.032C30.3382 19.2559 30.0766 20.4448 29.5547 21.4663C28.7618 22.9809 27.2851 24.2242 26.3762 25.836C26.0635 26.3767 25.8439 26.9731 25.7012 27.5503C25.4103 28.6943 25.3791 29.8027 25.3089 30.8313C24.8937 30.8082 24.0837 30.891 23.0401 30.9536ZM22.3041 37.1576C21.9037 37.5172 21.2575 37.9137 20.5346 37.9227C19.8351 37.9307 19.2018 37.5101 18.8808 37.1315C18.847 37.0935 18.8251 37.0582 18.796 37.0208C20.0138 37.3851 21.1983 37.417 22.3736 37.093C22.349 37.1151 22.33 37.135 22.3041 37.1576Z" fill="#F2F5F8"/>
<path id="Vector_2" d="M6.53958 26.0051C5.70575 26.5985 5.10009 27.2188 5.24902 27.4855C5.39494 27.7484 6.28662 27.5317 7.17472 26.9005C8.06415 26.2712 8.56332 25.5008 8.36313 25.2762C8.16068 25.0477 7.37548 25.4144 6.53958 26.0051Z" fill="#F2F5F8"/>
<path id="Vector_3" d="M5.41241 18.3862C6.42822 18.4945 7.28966 18.339 7.33642 18.0395C7.38318 17.7399 6.57395 17.4062 5.52884 17.2947C4.48392 17.1831 3.62248 17.3386 3.60501 17.6413C3.58755 17.9439 4.39659 18.2778 5.41241 18.3862Z" fill="#F2F5F8"/>
<path id="Vector_4" d="M6.13204 11.5351C6.72756 11.955 7.32627 12.1852 7.53679 11.9642C7.74544 11.7473 7.43406 11.1112 6.76681 10.6396C6.10087 10.1664 5.39831 10.0828 5.26215 10.3512C5.12318 10.6229 5.53859 11.1121 6.13204 11.5351Z" fill="#F2F5F8"/>
<path id="Vector_5" d="M13.4435 6.52725C13.6912 6.35278 13.4517 5.5858 12.9084 4.81432C12.3651 4.04284 11.7238 3.55887 11.4759 3.73334C11.2282 3.90781 11.4676 4.67478 12.0109 5.44627C12.5542 6.21775 13.1956 6.70171 13.4435 6.52725Z" fill="#F2F5F8"/>
<path id="Vector_6" d="M18.3821 1.42432C18.079 1.42432 17.8334 1.44441 17.8334 1.46901C17.8334 1.4938 18.079 1.51371 18.3821 1.51371C18.6852 1.51371 18.9311 1.4938 18.9311 1.46901C18.9311 1.44441 18.6852 1.42432 18.3821 1.42432Z" fill="#F2F5F8"/>
<path id="Vector_7" d="M20.5921 3.40442C20.622 2.40344 20.5057 1.56116 20.2038 1.51346C19.907 1.46557 19.5279 2.29189 19.495 3.36949C19.4593 4.44709 19.7853 5.29594 20.0843 5.26684C20.3887 5.23848 20.5583 4.4054 20.5921 3.40442Z" fill="#F2F5F8"/>
<path id="Vector_8" d="M28.9956 5.78701C29.8586 4.89307 30.3057 3.95689 30.0721 3.76702C29.8356 3.57396 29.0332 4.16779 28.205 5.02547C27.3788 5.88504 26.8156 6.70929 27.0173 6.93822C27.216 7.16452 28.1344 6.68263 28.9956 5.78701Z" fill="#F2F5F8"/>
<path id="Vector_9" d="M32.1314 12.2971C32.2557 12.5736 33.3938 12.3315 34.6737 11.7564C35.9533 11.1816 36.8901 10.4912 36.7658 10.2148C36.6416 9.93816 35.5034 10.1802 34.2237 10.7553C32.944 11.3303 32.0073 12.0205 32.1314 12.2971Z" fill="#F2F5F8"/>
<path id="Vector_10" d="M34.0516 19.5757C33.9829 19.8666 34.861 20.3179 36.0348 20.3507C37.2082 20.3874 38.1117 19.9888 38.06 19.6944C38.0105 19.3913 37.122 19.2882 36.0671 19.2534C35.0122 19.2258 34.1192 19.276 34.0516 19.5757Z" fill="#F2F5F8"/>
<path id="Vector_11" d="M32.9719 26.4212C32.77 26.6445 33.1873 27.3502 33.9695 27.9134C34.7504 28.4785 35.5514 28.6526 35.6999 28.3906C35.8511 28.1257 35.3393 27.5504 34.612 27.0235C33.8829 26.4991 33.1761 26.1943 32.9719 26.4212Z" fill="#F2F5F8"/>
<path id="Vector_12" d="M27.8152 16.1481C28.2892 17.1196 28.4815 17.7938 28.6436 17.7694C28.7801 17.7546 28.864 17.0143 28.5403 15.8711C28.2268 14.7404 27.4244 13.2192 26.0042 12.0379C24.5841 10.8569 22.9423 10.3447 21.7733 10.2426C20.5903 10.1323 19.8776 10.3496 19.8879 10.4867C19.8936 10.6505 20.5914 10.7168 21.633 11.006C22.6709 11.2879 24.0629 11.8518 25.3022 12.8819C26.5408 13.9127 27.3489 15.1791 27.8152 16.1481Z" fill="#F2F5F8"/>
</g>
</g>
</svg>
